<svg xmlns="http://www.w3.org/2000/svg" version="1.1" xmlns:xlink="http://www.w3.org/1999/xlink" xmlns:svgjs="http://svgjs.dev/svgjs" width="1500" height="1500" viewBox="0 0 1500 1500"><rect width="1500" height="1500" fill="#000000"></rect><g transform="matrix(0.6666666666666666,0,0,0.6666666666666666,249.39393939393938,648.8305631252244)"><svg viewBox="0 0 396 80" data-background-color="#ffffff" preserveAspectRatio="xMidYMid meet" height="303" width="1500" xmlns="http://www.w3.org/2000/svg" xmlns:xlink="http://www.w3.org/1999/xlink"><g id="tight-bounds" transform="matrix(1,0,0,1,0.2400000000000091,0.06710371278236948)"><svg viewBox="0 0 395.52 79.86579257443528" height="79.86579257443528" width="395.52"><g><svg viewBox="0 0 667.6388219172208 134.8136722944" height="79.86579257443528" width="395.52"><g transform="matrix(1,0,0,1,272.11882191722077,8.765843591368743)"><svg viewBox="0 0 395.52 117.28198511166251" height="117.28198511166251" width="395.52"><g id="textblocktransform"><svg viewBox="0 0 395.52 117.28198511166251" height="117.28198511166251" width="395.52" id="textblock"><g><svg viewBox="0 0 395.52 117.28198511166251" height="117.28198511166251" width="395.52"><g transform="matrix(1,0,0,1,0,0)"><svg width="395.52" viewBox="1.45 -34 161.19 47.8" height="117.28198511166251" data-palette-color="#8789fe"><path d="M8.5 0.65L8.5 0.65Q6.65 0.65 5.05 0.1 3.45-0.45 2.45-1.45 1.45-2.45 1.45-3.85L1.45-3.85Q1.45-4.6 1.83-5.28 2.2-5.95 3.05-5.95L3.05-5.95Q3.5-5.95 4-5.7L4-5.7Q4.9-5.2 6.3-4.78 7.7-4.35 9.25-4.35L9.25-4.35Q11-4.35 12.35-4.85 13.7-5.35 13.7-6.25L13.7-6.25Q13.7-6.95 12.68-7.25 11.65-7.55 9.25-7.9L9.25-7.9Q7.6-8.2 6.05-8.6 4.5-9 3.5-9.98 2.5-10.95 2.5-12.85L2.5-12.85Q2.5-14.7 3.53-16.43 4.55-18.15 6.6-19.3 8.65-20.45 11.6-20.45L11.6-20.45Q13.15-20.45 14.6-20.1 16.05-19.75 17-19.05 17.95-18.35 17.95-17.3L17.95-17.3Q17.95-16.4 17.32-15.65 16.7-14.9 15.88-14.43 15.05-13.95 14.5-13.95L14.5-13.95Q14.1-13.95 13.55-14.5L13.55-14.5Q12.7-15.2 11.68-15.48 10.65-15.75 9.65-15.75L9.65-15.75Q8.15-15.75 7.23-15.3 6.3-14.85 6.3-14.15L6.3-14.15Q6.3-13.5 7.08-13.1 7.85-12.7 9-12.53 10.15-12.35 11.2-12.2L11.2-12.2Q14.1-11.8 15.8-10.83 17.5-9.85 17.5-7.4L17.5-7.4Q17.5-5.5 16.43-3.63 15.35-1.75 13.33-0.55 11.3 0.65 8.5 0.65ZM23.7 0.55L23.7 0.55Q23.15 0.55 22.65 0.23 22.15-0.1 22.25-0.65L22.25-0.65Q23-4.65 23.52-8.78 24.05-12.9 24.05-17.1L24.05-17.1Q24.05-20.8 23.8-23.8 23.55-26.8 22.2-29.55L22.2-29.55Q21.95-30.1 21.8-30.5 21.65-30.9 21.65-31.25L21.65-31.25Q21.65-32.2 22.75-33.1 23.85-34 25.1-34L25.1-34Q26.9-34 27.55-31.8 28.2-29.6 28.2-25.3L28.2-25.3Q28.2-20.15 27.6-16.32 27-12.5 26.55-10.5L26.55-10.5 26.75-10.4Q27.75-12.85 29.3-15.13 30.85-17.4 32.87-18.9 34.9-20.4 37.3-20.4L37.3-20.4Q39.65-20.4 40.92-19 42.2-17.6 42.2-15.65L42.2-15.65Q42.2-13.35 40.55-11.55 38.9-9.75 36.25-8.55L36.25-8.55Q36.9-6.85 38.1-5.88 39.3-4.9 41.15-4.9L41.15-4.9Q41.75-4.9 42.15-5L42.15-5Q42.8-5.15 42.8-3.75L42.8-3.75Q42.8-2.95 42.5-1.95 42.2-0.95 41.32-0.23 40.45 0.5 38.7 0.5L38.7 0.5Q36.35 0.5 34.87-0.88 33.4-2.25 32.57-4.28 31.75-6.3 31.3-8.3L31.3-8.3Q30.9-10.15 32.55-10.25L32.55-10.25Q34.3-10.45 35.5-11.3 36.7-12.15 36.7-13.55L36.7-13.55Q36.7-15.15 35.15-15.15L35.15-15.15Q34.15-15.15 33.12-14.43 32.1-13.7 31.22-12.7 30.35-11.7 29.8-10.75L29.8-10.75Q29.05-9.45 28.5-8.2 27.95-6.95 27.6-5.7L27.6-5.7 27.6-3.7Q27.6-1.85 26.52-0.65 25.45 0.55 23.7 0.55ZM47.9 13.8L47.9 13.8Q45.85 13.8 44.37 12.7 42.9 11.6 42.9 9.75L42.9 9.75Q42.9 8.3 43.77 7.28 44.65 6.25 45.95 6.25L45.95 6.25Q46.55 6.25 46.8 6.45 47.05 6.65 47.2 6.9L47.2 6.9Q47.6 7.55 48.12 8.03 48.65 8.5 49.55 8.5L49.55 8.5Q50.75 8.5 51.87 7.65 53 6.8 53.95 5.7L53.95 5.7Q54.8 4.75 56 2.98 57.2 1.2 58.4-1.05L58.4-1.05Q57.3-0.1 56.35 0.33 55.4 0.75 54.55 0.75L54.55 0.75Q53.5 0.75 52.5-0.03 51.5-0.8 51.25-2.95L51.25-2.95Q51.1-4.6 50.67-6.6 50.25-8.6 49.62-10.48 49-12.35 48.1-13.65L48.1-13.65Q47.75-14.25 47.3-14.55 46.85-14.85 46-14.95L46-14.95Q45.4-15 45.22-15.3 45.05-15.6 45.05-16.25L45.05-16.25Q45.05-18.05 46.05-19.15 47.05-20.25 48.75-20.25L48.75-20.25Q50.8-20.25 51.7-18.68 52.6-17.1 53.25-14.85L53.25-14.85Q53.5-13.95 53.77-12.48 54.05-11 54.27-9.3 54.5-7.6 54.6-6.05L54.6-6.05Q54.65-4.95 55.85-4.95L55.85-4.95Q57.45-4.95 58.9-5.95 60.35-6.95 61.27-8.55 62.2-10.15 62.2-11.9L62.2-11.9Q62.2-12.9 61.95-13.7 61.7-14.5 61.1-15.1L61.1-15.1Q60.6-15.7 60.3-16.07 60-16.45 60-16.95L60-16.95Q60-17.8 60.8-18.55 61.6-19.3 62.72-19.8 63.85-20.3 64.7-20.3L64.7-20.3Q66.2-20.3 66.7-18.88 67.2-17.45 66.95-15.75L66.95-15.75Q66.65-13.4 65.75-10.2 64.84-7 63.42-3.5 62 0 60.17 3.28 58.35 6.55 56.3 9L56.3 9Q54.55 11.15 52.4 12.48 50.25 13.8 47.9 13.8ZM73.79 13.8L73.79 13.8Q72.29 13.8 71.44 12.98 70.59 12.15 70.59 10L70.59 10Q70.59 8.55 70.92 6.35 71.24 4.15 71.69 1.7L71.69 1.7Q72.04-0.25 72.37-2.4 72.69-4.55 72.92-6.63 73.14-8.7 73.14-10.35L73.14-10.35Q73.14-12.25 72.72-13.65 72.29-15.05 70.99-15.45L70.99-15.45Q70.49-15.65 70.09-15.9 69.69-16.15 69.69-16.7L69.69-16.7Q69.69-17.4 70.24-18.25 70.79-19.1 71.82-19.73 72.84-20.35 74.14-20.35L74.14-20.35Q75.84-20.35 76.49-19.18 77.14-18 77.14-16.1L77.14-16.1Q77.14-15.55 77.09-14.98 77.04-14.4 76.94-13.8L76.94-13.8Q78.39-16.6 80.77-18.53 83.14-20.45 86.14-20.45L86.14-20.45Q89.14-20.45 90.87-18.43 92.59-16.4 92.59-12.95L92.59-12.95Q92.59-10.4 91.79-7.98 90.99-5.55 89.54-3.6 88.09-1.65 86.07-0.5 84.04 0.65 81.54 0.65L81.54 0.65Q79.74 0.65 78.39 0.03 77.04-0.6 76.04-1.6L76.04-1.6Q75.84-0.3 75.67 1.55 75.49 3.4 75.49 5L75.49 5Q75.49 6.85 75.92 7.9 76.34 8.95 77.59 9.5L77.59 9.5Q78.14 9.75 78.14 10.3L78.14 10.3Q78.14 10.7 77.74 11.55 77.34 12.4 76.42 13.1 75.49 13.8 73.79 13.8ZM82.69-4.75L82.69-4.75Q85.54-4.75 87.09-6.55 88.64-8.35 88.64-10.7L88.64-10.7Q88.64-12.75 87.54-13.88 86.44-15 84.59-15L84.59-15Q82.69-15 81.24-13.88 79.79-12.75 78.77-10.95 77.74-9.15 77.09-7.1L77.09-7.1Q79.59-4.75 82.69-4.75ZM102.64 0.65L102.64 0.65Q99.64 0.65 97.82-1.23 95.99-3.1 95.99-6.6L95.99-6.6Q95.99-9.1 96.97-11.58 97.94-14.05 99.79-16.05 101.64-18.05 104.24-19.25 106.84-20.45 110.09-20.45L110.09-20.45Q113.09-20.45 115.22-19.43 117.34-18.4 117.34-16.65L117.34-16.65Q117.34-16.2 117.24-15.48 117.14-14.75 116.99-14.3L116.99-14.3Q116.84-13.9 116.57-13.58 116.29-13.25 115.84-13.25L115.84-13.25Q115.64-13.25 115.09-13.4L115.09-13.4Q114.89-12.35 114.79-11.35 114.69-10.35 114.69-9.35L114.69-9.35Q114.69-7.45 115.27-5.98 115.84-4.5 117.54-4.15L117.54-4.15Q117.99-4.05 118.27-3.85 118.54-3.65 118.54-3L118.54-3Q118.54-2.45 118.27-1.6 117.99-0.75 117.22-0.08 116.44 0.6 114.99 0.6L114.99 0.6Q113.04 0.6 111.99-0.83 110.94-2.25 110.94-4.9L110.94-4.9Q109.59-2.45 107.52-0.9 105.44 0.65 102.64 0.65ZM104.24-4.55L104.24-4.55Q106.24-4.55 107.77-5.8 109.29-7.05 110.14-8.95L110.14-8.95Q110.69-10.15 110.99-11.58 111.29-13 111.39-14.4L111.39-14.4Q110.54-14.8 109.44-15.05 108.34-15.3 107.14-15.3L107.14-15.3Q104.09-15.3 102.12-13.5 100.14-11.7 100.14-9L100.14-9Q100.14-7 101.24-5.78 102.34-4.55 104.24-4.55ZM128.89 0.65L128.89 0.65Q125.39 0.65 123.41-1.48 121.44-3.6 121.44-7.4L121.44-7.4Q121.44-11.15 123.04-14.1 124.64-17.05 127.44-18.75 130.24-20.45 133.79-20.45L133.79-20.45Q136.19-20.45 137.59-19.65 138.99-18.85 138.99-17.45L138.99-17.45Q138.99-16.2 137.79-15L137.79-15Q137.34-14.55 136.61-14.18 135.89-13.8 135.49-13.8L135.49-13.8Q135.04-13.8 134.74-14.15L134.74-14.15Q134.24-14.7 133.44-15.2 132.64-15.7 131.19-15.7L131.19-15.7Q128.74-15.7 127.19-14.03 125.64-12.35 125.64-9.65L125.64-9.65Q125.64-7.2 127.04-5.7 128.44-4.2 130.74-4.2L130.74-4.2Q131.94-4.2 133.36-4.63 134.79-5.05 135.89-5.85L135.89-5.85Q136.44-6.35 137.04-6.35L137.04-6.35Q138.04-6.35 138.04-5.1L138.04-5.1Q138.04-3.45 136.39-1.95L136.39-1.95Q135.14-0.8 133.06-0.08 130.99 0.65 128.89 0.65ZM143.54 0.55L143.54 0.55Q142.99 0.55 142.49 0.23 141.99-0.1 142.09-0.65L142.09-0.65Q142.84-4.65 143.36-8.78 143.89-12.9 143.89-17.1L143.89-17.1Q143.89-20.8 143.64-23.8 143.39-26.8 142.04-29.55L142.04-29.55Q141.79-30.1 141.64-30.5 141.49-30.9 141.49-31.25L141.49-31.25Q141.49-32.2 142.59-33.1 143.69-34 144.94-34L144.94-34Q146.74-34 147.39-31.8 148.04-29.6 148.04-25.3L148.04-25.3Q148.04-20.15 147.44-16.32 146.84-12.5 146.39-10.5L146.39-10.5 146.59-10.4Q147.59-12.85 149.14-15.13 150.69-17.4 152.71-18.9 154.74-20.4 157.14-20.4L157.14-20.4Q159.49-20.4 160.76-19 162.04-17.6 162.04-15.65L162.04-15.65Q162.04-13.35 160.39-11.55 158.74-9.75 156.09-8.55L156.09-8.55Q156.74-6.85 157.94-5.88 159.14-4.9 160.99-4.9L160.99-4.9Q161.59-4.9 161.99-5L161.99-5Q162.64-5.15 162.64-3.75L162.64-3.75Q162.64-2.95 162.34-1.95 162.04-0.95 161.16-0.23 160.29 0.5 158.54 0.5L158.54 0.5Q156.19 0.5 154.71-0.88 153.24-2.25 152.41-4.28 151.59-6.3 151.14-8.3L151.14-8.3Q150.74-10.15 152.39-10.25L152.39-10.25Q154.14-10.45 155.34-11.3 156.54-12.15 156.54-13.55L156.54-13.55Q156.54-15.15 154.99-15.15L154.99-15.15Q153.99-15.15 152.96-14.43 151.94-13.7 151.06-12.7 150.19-11.7 149.64-10.75L149.64-10.75Q148.89-9.45 148.34-8.2 147.79-6.95 147.44-5.7L147.44-5.7 147.44-3.7Q147.44-1.85 146.36-0.65 145.29 0.55 143.54 0.55Z" opacity="1" transform="matrix(1,0,0,1,0,0)" fill="#ffffff" class="wordmark-text-0" data-fill-palette-color="primary" id="text-0"></path></svg></g></svg></g></svg></g></svg></g><g><svg viewBox="0 0 244.43135999999996 134.8136722944" height="134.8136722944" width="244.43135999999996"><g><svg xmlns:dc="http://purl.org/dc/elements/1.1/" xmlns:cc="http://creativecommons.org/ns#" xmlns:rdf="http://www.w3.org/1999/02/22-rdf-syntax-ns#" xmlns:svg="http://www.w3.org/2000/svg" xmlns="http://www.w3.org/2000/svg" xmlns:sodipodi="http://sodipodi.sourceforge.net/DTD/sodipodi-0.dtd" xmlns:inkscape="http://www.inkscape.org/namespaces/inkscape" version="1.0" x="0" y="0" viewBox="0 0 100 55.154" enable-background="new 0 0 100 55.154" xml:space="preserve" id="icon-0" width="244.43135999999996" height="134.8136722944" class="icon-icon-0" data-fill-palette-color="accent"><path d="M77.959 55.154H11.282C5.061 55.154 0 50.093 0 43.873 0 38.595 3.643 34.152 8.546 32.927 10.734 27.458 15.794 23.541 21.695 22.838 22.317 10.14 32.843 0 45.693 0 55.11 0 63.515 5.536 67.416 13.756A21.94 21.94 0 0 1 77.959 11.074C90.112 11.074 100 20.961 100 33.114S90.113 55.154 77.959 55.154" fill="#ffffff" data-fill-palette-color="accent"></path></svg></g></svg></g></svg></g><defs></defs></svg><rect width="395.52" height="79.86579257443528" fill="none" stroke="none" visibility="hidden"></rect></g></svg></g></svg>